<mxfile host="app.diagrams.net" modified="2024-07-16T08:50:17.545Z" agent="Mozilla/5.0 (Windows NT 10.0; Win64; x64) AppleWebKit/537.36 (KHTML, like Gecko) Chrome/126.0.0.0 Safari/537.36" etag="nX7EVggtt6nm9o2b1PQ9" version="24.6.2" type="device">
  <diagram name="1 oldal" id="BcJVBN36YtyNjJ76aYmX">
    <mxGraphModel dx="1562" dy="893" grid="1" gridSize="10" guides="1" tooltips="1" connect="1" arrows="1" fold="1" page="1" pageScale="1" pageWidth="827" pageHeight="1169" math="0" shadow="0">
      <root>
        <mxCell id="0" />
        <mxCell id="1" parent="0" />
        <mxCell id="nOyGfsx_vU3db17YqKDk-10" value="Docker" style="rounded=0;whiteSpace=wrap;html=1;verticalAlign=bottom;fillColor=#dae8fc;strokeColor=#6c8ebf;" parent="1" vertex="1">
          <mxGeometry x="60" y="220" width="480" height="140" as="geometry" />
        </mxCell>
        <mxCell id="nOyGfsx_vU3db17YqKDk-9" style="edgeStyle=orthogonalEdgeStyle;rounded=0;orthogonalLoop=1;jettySize=auto;html=1;exitX=0.5;exitY=1;exitDx=0;exitDy=0;" parent="1" source="nOyGfsx_vU3db17YqKDk-1" target="nOyGfsx_vU3db17YqKDk-2" edge="1">
          <mxGeometry relative="1" as="geometry" />
        </mxCell>
        <mxCell id="nOyGfsx_vU3db17YqKDk-1" value="Integr치ci칩s teszt" style="rounded=0;whiteSpace=wrap;html=1;fillColor=#fff2cc;strokeColor=#d6b656;" parent="1" vertex="1">
          <mxGeometry x="240" y="40" width="120" height="40" as="geometry" />
        </mxCell>
        <mxCell id="nOyGfsx_vU3db17YqKDk-6" style="edgeStyle=orthogonalEdgeStyle;rounded=0;orthogonalLoop=1;jettySize=auto;html=1;exitX=0.5;exitY=1;exitDx=0;exitDy=0;entryX=0.5;entryY=0;entryDx=0;entryDy=0;" parent="1" source="nOyGfsx_vU3db17YqKDk-2" target="nOyGfsx_vU3db17YqKDk-3" edge="1">
          <mxGeometry relative="1" as="geometry">
            <mxPoint x="300" y="200" as="sourcePoint" />
          </mxGeometry>
        </mxCell>
        <mxCell id="nOyGfsx_vU3db17YqKDk-7" style="edgeStyle=orthogonalEdgeStyle;rounded=0;orthogonalLoop=1;jettySize=auto;html=1;exitX=0.5;exitY=1;exitDx=0;exitDy=0;entryX=0.5;entryY=0;entryDx=0;entryDy=0;" parent="1" source="nOyGfsx_vU3db17YqKDk-2" target="nOyGfsx_vU3db17YqKDk-4" edge="1">
          <mxGeometry relative="1" as="geometry">
            <mxPoint x="300" y="200" as="sourcePoint" />
          </mxGeometry>
        </mxCell>
        <mxCell id="nOyGfsx_vU3db17YqKDk-8" style="edgeStyle=orthogonalEdgeStyle;rounded=0;orthogonalLoop=1;jettySize=auto;html=1;exitX=0.5;exitY=1;exitDx=0;exitDy=0;entryX=0.5;entryY=0;entryDx=0;entryDy=0;" parent="1" source="nOyGfsx_vU3db17YqKDk-2" target="nOyGfsx_vU3db17YqKDk-5" edge="1">
          <mxGeometry relative="1" as="geometry">
            <mxPoint x="300" y="200" as="sourcePoint" />
          </mxGeometry>
        </mxCell>
        <mxCell id="nOyGfsx_vU3db17YqKDk-2" value="Alkalmaz치s" style="rounded=0;whiteSpace=wrap;html=1;fillColor=#ffe6cc;strokeColor=#d79b00;" parent="1" vertex="1">
          <mxGeometry x="240" y="120" width="120" height="40" as="geometry" />
        </mxCell>
        <mxCell id="nOyGfsx_vU3db17YqKDk-3" value="PostgreSQL adatb치zis" style="rounded=0;whiteSpace=wrap;html=1;fillColor=#e1d5e7;strokeColor=#9673a6;" parent="1" vertex="1">
          <mxGeometry x="80" y="240" width="120" height="40" as="geometry" />
        </mxCell>
        <mxCell id="nOyGfsx_vU3db17YqKDk-4" value="Redis&amp;nbsp;&lt;div&gt;cache&lt;/div&gt;" style="rounded=0;whiteSpace=wrap;html=1;fillColor=#e1d5e7;strokeColor=#9673a6;" parent="1" vertex="1">
          <mxGeometry x="240" y="240" width="120" height="40" as="geometry" />
        </mxCell>
        <mxCell id="nOyGfsx_vU3db17YqKDk-5" value="Kafka&lt;div&gt;Message Broker&lt;/div&gt;" style="rounded=0;whiteSpace=wrap;html=1;fillColor=#e1d5e7;strokeColor=#9673a6;" parent="1" vertex="1">
          <mxGeometry x="400" y="240" width="120" height="40" as="geometry" />
        </mxCell>
        <mxCell id="nOyGfsx_vU3db17YqKDk-11" value="" style="image;sketch=0;aspect=fixed;html=1;points=[];align=center;fontSize=12;image=img/lib/mscae/Docker.svg;" parent="1" vertex="1">
          <mxGeometry x="440" y="300" width="50" height="41" as="geometry" />
        </mxCell>
        <mxCell id="nOyGfsx_vU3db17YqKDk-12" style="edgeStyle=orthogonalEdgeStyle;rounded=0;orthogonalLoop=1;jettySize=auto;html=1;exitX=1;exitY=0.5;exitDx=0;exitDy=0;entryX=0.918;entryY=0.007;entryDx=0;entryDy=0;entryPerimeter=0;" parent="1" source="nOyGfsx_vU3db17YqKDk-1" target="nOyGfsx_vU3db17YqKDk-10" edge="1">
          <mxGeometry relative="1" as="geometry" />
        </mxCell>
        <mxCell id="nOyGfsx_vU3db17YqKDk-13" value="" style="shape=image;imageAspect=0;aspect=fixed;verticalLabelPosition=bottom;verticalAlign=top;image=data:image/svg+xml,PHN2ZyB4bWxuczp4bGluaz0iaHR0cDovL3d3dy53My5vcmcvMTk5OS94bGluayIgeG1sbnM9Imh0dHA6Ly93d3cudzMub3JnLzIwMDAvc3ZnIiBoZWlnaHQ9IjQ4IiB3aWR0aD0iMTgzIiB2aWV3Qm94PSIwIDAgNzc3LjcwOTIgMjA0LjE2NzIiIGRhdGEtbmFtZT0iTGF5ZXIgMSIgaWQ9IkxheWVyXzEiPiYjeGE7ICA8ZyBpZD0ibG9nb01hcmsiPiYjeGE7ICAgIDxhIHhsaW5rOmhyZWY9IjgyLjY5NDExNzY0NzA1ODgiPiYjeGE7ICAgICAgPHBhdGggc3R5bGU9ImZpbGw6ICMzNjFlNWI7IGZpbGwtcnVsZTogZXZlbm9kZDsiIGQ9Ik0xNzguMjI5NSw1NC4wMTAxYy4wMDctLjExMjUsLjAxMDgtLjIyNTIsLjAxMDgtLjMzODctLjAwMDMtLjMxMzItLjAyOTItLjYyMjctLjA4NDUtLjkyNTQtLjI2MDUtMS41MTM4LTEuMTk4LTIuODQ3MS0yLjU1NjEtMy42MzEyLS4xNTI1LS4wODgtLjMwODUtLjE2NzctLjQ2NzYtLjIzODlMOTEuNzczOCwuNjk4NGMtMS42MTAxLS45MzA1LTMuNTk0NC0uOTMxMi01LjIwNTQtLjAwMjVMMi42NDgsNDkuMDk3NmMtMS42MTA3LC45MjkyLTIuNjAzNSwyLjY0Ny0yLjYwNDQsNC41MDY4TDAsMTUwLjQ4MjZjLS4wMDA2LDEuODU5OCwuOTkwNiwzLjU3ODUsMi42MDA2LDQuNTA5M2w4My44NzcsNDguNDc3Yy43OTE3LC40NTc1LDEuNjkwMSwuNjk4MywyLjYwNDQsLjY5ODNoLjEwODdjLjkxNDYsMCwxLjgxMzEtLjI0MDgsMi42MDQ3LS42OTgzbDgzLjg3NjctNDguNDc3YzEuNjEwMS0uOTMwOCwyLjYwMTYtMi42NDk1LDIuNjAwNi00LjUwOTNsLS4wNDMyLTk2LjQ3MjVaIiBkYXRhLW5hbWU9ImxvZ29NYXJrICZhbXA7bHQ7UGF0aEl0ZW0mYW1wO2d0OyIgaWQ9ImxvZ29NYXJrX19QYXRoSXRlbV8iLz4mI3hhOyAgICA8L2E+JiN4YTsgICAgPGEgeGxpbms6aHJlZj0iMzkuMjYxOTYwNzg0MzEzNyI+JiN4YTsgICAgICA8cG9seWdvbiBzdHlsZT0iZmlsbDogIzE2ZDZjNzsiIHBvaW50cz0iODkuMTM2MiAxMS4xODcgMTAuNDIxNCA1Ni42Mzk2IDEwLjQyMTQgMTQ3LjUyNzUgODkuMTM2MiAxOTIuOTc5OSAxNjcuODUxNSAxNDcuNTI3NSAxNjcuODUxNSA1Ni42Mzk2IDg5LjEzNjIgMTEuMTg3IiBkYXRhLW5hbWU9ImxvZ29NYXJrICZhbXA7bHQ7UGF0aEl0ZW0mYW1wO2d0OyIgaWQ9ImxvZ29NYXJrX19QYXRoSXRlbV8tMiIvPiYjeGE7ICAgIDwvYT4mI3hhOyAgICA8YSB4bGluazpocmVmPSI2My40NjcwNTg4MjM1Mjk0Ij4mI3hhOyAgICAgIDxwb2x5Z29uIHN0eWxlPSJmaWxsOiAjMDI3ZjllOyIgcG9pbnRzPSIxNjcuODUxNCA1Ni42Mzk1IDE2Ny44NTE0IDE0Ny41Mjc0IDg5LjEzNjQgMTkyLjk4IDg5LjEzNjQgMTAyLjA5MjEgMTY3Ljg1MTQgNTYuNjM5NSIgZGF0YS1uYW1lPSJsb2dvTWFyayAmYW1wO2x0O1BhdGhJdGVtJmFtcDtndDsiIGlkPSJsb2dvTWFya19fUGF0aEl0ZW1fLTMiLz4mI3hhOyAgICA8L2E+JiN4YTsgICAgPGEgeGxpbms6aHJlZj0iNTEuMTMyOTQxMTc2NDcwNiI+JiN4YTsgICAgICA8cG9seWdvbiBzdHlsZT0iZmlsbDogIzE3YTZiMjsiIHBvaW50cz0iMTY3Ljg1MTQgNTYuNjM5NSA4OS4xMzY0IDEwMi4wOTIxIDEwLjQyMTUgNTYuNjM5NSA4OS4xMzY0IDExLjE4NyAxNjcuODUxNCA1Ni42Mzk1IiBkYXRhLW5hbWU9ImxvZ29NYXJrICZhbXA7bHQ7UGF0aEl0ZW0mYW1wO2d0OyIgaWQ9ImxvZ29NYXJrX19QYXRoSXRlbV8tNCIvPiYjeGE7ICAgIDwvYT4mI3hhOyAgPC9nPiYjeGE7ICA8cGF0aCBzdHlsZT0iZmlsbDogIzM2MWU1YjsiIGQ9Ik0yMjcuNDIzNCwxMzAuNTI0M2MtLjU3MzEsMC0xLjA0MTQtLjE4MTctMS40MDQ4LS41NDY0LS4zNjQ3LS4zNjM0LS41NDY0LS44MzE3LS41NDY0LTEuNDA0OHYtNDEuODM4M2gtMTQuMjA2MmMtLjUyMDcsMC0uOTYzNi0uMTgxNy0xLjMyNy0uNTQ2NC0uMzY0Ny0uMzYzNC0uNTQ2NC0uODA2My0uNTQ2NC0xLjMyN3YtNy4wMjUxYzAtLjU3MTgsLjE4MTctMS4wNDAxLC41NDY0LTEuNDA0OCwuMzYzNC0uMzYzNCwuODA2My0uNTQ2NCwxLjMyNy0uNTQ2NGg0MC45MDE0Yy41NzE4LDAsMS4wNDAxLC4xODMsMS40MDQ4LC41NDY0LC4zNjM0LC4zNjQ3LC41NDY0LC44MzMsLjU0NjQsMS40MDQ4djcuMDI1MWMwLC41MjA3LS4xODMsLjk2MzYtLjU0NjQsMS4zMjctLjM2NDcsLjM2NDctLjgzMywuNTQ2NC0xLjQwNDgsLjU0NjRoLTE0LjEyODN2NDEuODM4M2MwLC41NzMxLS4xODMsMS4wNDE0LS41NDY0LDEuNDA0OC0uMzY0NCwuMzY0Ny0uODMzLC41NDY0LTEuNDA0OCwuNTQ2NGgtOC42NjQ0WiIgaWQ9ImZ1bGxMb2dvIi8+JiN4YTsgIDxwYXRoIHN0eWxlPSJmaWxsOiAjMzYxZTViOyIgZD0iTTI3MS4wNTYsMTMxLjMwNDVjLTUuOTg0NywwLTEwLjczMjktMS42NjQ3LTE0LjI0NTItNC45OTU0LTMuNTEyNC0zLjMyOTQtNS4zNzM3LTguMTY5MS01LjU4MDktMTQuNTE4NXYtMy4zNTYxYy4yMDcxLTQuMDA2NywxLjExODMtNy40NTQzLDIuNzMxOC0xMC4zNDI3LDEuNjEyMy0yLjg4ODEsMy44NzU4LTUuMDk5Myw2Ljc5MS02LjYzNSwyLjkxMzUtMS41MzQxLDYuMzIyNC0yLjMwMjYsMTAuMjI1Mi0yLjMwMjYsNC4zNzExLDAsOC4wMjY1LC44OTc4LDEwLjk2NywyLjY5MzEsMi45MzkzLDEuNzk1Myw1LjE1MTcsNC4yNDE4LDYuNjM0Nyw3LjMzNzEsMS40ODMsMy4wOTcyLDIuMjI0NSw2LjY0ODMsMi4yMjQ1LDEwLjY1NXYxLjc5NTZjMCwuNTIwNC0uMTk1MSwuOTYzMi0uNTg1NSwxLjMyNjctLjM5MDEsLjM2NDctLjg0NjMsLjU0NjQtMS4zNjU4LC41NDY0aC0yNS41MjQydi42MjQ2Yy4wNTExLDEuNjY2LC4zNzY4LDMuMTg3NywuOTc1Niw0LjU2NTgsLjU5NzYsMS4zNzk0LDEuNDU2MywyLjQ4NTYsMi41NzU4LDMuMzE3MywxLjExODMsLjgzMzYsMi40NTg2LDEuMjQ5Miw0LjAxOTcsMS4yNDkyLDEuMzAwMywwLDIuMzY3NC0uMTgxNywzLjIwMDQtLjU0NjQsLjgzMTctLjM2MzQsMS41MjIxLS44MDYzLDIuMDY4NS0xLjMyNjcsLjU0NjQtLjUxOTcsLjk0ODktLjk2MjYsMS4yMDk4LTEuMzI3MywuNDY4My0uNTE5MSwuODQ1NC0uODQ1MSwxLjEzMTktLjk3NTMsLjI4NTMtLjEyOTYsLjc0MTUtLjE5NTEsMS4zNjYxLS4xOTUxaDguMTE3NmMuNTE5NywwLC45NDg5LC4xNDM2LDEuMjg3OSwuNDI4OSwuMzM4LC4yODY2LC40ODA3LC42OTA3LC40MjkyLDEuMjA5OC0uMDUyNCwuODMzLS40ODE2LDEuODYxNy0xLjI4NzksMy4wODM1LS44MDczLDEuMjIzMS0xLjk5MDMsMi40MTk1LTMuNTUxNSwzLjU5MDUtMS41NjExLDEuMTcxLTMuNTAwMywyLjE0NjMtNS44MTUsMi45MjcyLTIuMzE2MywuNzgwMi00Ljk4MzYsMS4xNzA0LTguMDAwNywxLjE3MDRabS03LjcyNzUtMjQuOWgxNS4yOTg3di0uMTU1N2MwLTEuODczNy0uMjk5OS0zLjQ5OS0uODk3NS00Ljg3ODUtLjU5ODgtMS4zNzgxLTEuNDcwOS0yLjQ1ODktMi42MTQ5LTMuMjM5NS0xLjE0NTMtLjc4MDYtMi41MjQ3LTEuMTcxLTQuMTM3LTEuMTcxLTEuNjEzNiwwLTIuOTkzLC4zOTA0LTQuMTM3LDEuMTcxLTEuMTQ1MywuNzgwNi0yLjAxNzMsMS44NjEzLTIuNjE0OSwzLjIzOTUtLjU5ODgsMS4zNzk0LS44OTc1LDMuMDA0Ny0uODk3NSw0Ljg3ODV2LjE1NTdaIiBkYXRhLW5hbWU9ImZ1bGxMb2dvIiBpZD0iZnVsbExvZ28tMiIvPiYjeGE7ICA8cGF0aCBzdHlsZT0iZmlsbDogIzM2MWU1YjsiIGQ9Ik0zMTMuNDM5NCwxMzEuMzA0NWMtMy4yMjcxLDAtNS45OTgtLjM3ODEtOC4zMTMtMS4xMzE2LTIuMzE2LS43NTM2LTQuMTg5NC0xLjY3OC01LjYxOTktMi43NzA5LTEuNDMxOC0xLjA5MjktMi40OTc3LTIuMTk3OC0zLjIwMDQtMy4zMTczLS43MDI0LTEuMTE4My0xLjA4MDUtMi4wNjg4LTEuMTMxNi0yLjg0OS0uMDUyNC0uNTcxOCwuMTI5My0xLjA0MDEsLjU0NjQtMS40MDQ4LC40MTU5LS4zNjM0LC44MzE3LS41NDY0LDEuMjQ4OC0uNTQ2NGg3LjU3MTJjLjE1NjMsMCwuMzEyMywuMDI2NywuNDY4NiwuMDc4MiwuMTU2LC4wNTIxLC4zMTIsLjE4MywuNDY4MywuMzkwMSwuNjc1NywuNDY4MywxLjM3ODEsMS4wMDI2LDIuMTA3NiwxLjU5OTksLjcyODEsLjU5OTIsMS41NzMyLDEuMTA2MiwyLjUzNjgsMS41MjI0LC45NjIzLC40MTY4LDIuMTcyMSwuNjI0NiwzLjYyOTYsLjYyNDYsMS43MTcxLDAsMy4xNzM0LS4zNTE0LDQuMzcxMS0xLjA1NDEsMS4xOTY0LS43MDIxLDEuNzk1My0xLjcwMzUsMS43OTUzLTMuMDA1NCwwLS45MzY2LS4yNzMyLTEuNzE2OC0uODE5Ni0yLjM0MTRzLTEuNTc0NS0xLjE5NjQtMy4wODMyLTEuNzE3NGMtMS41MS0uNTE5MS0zLjc0NjgtMS4wOTI5LTYuNzEyOC0xLjcxNjgtMi44MS0uNjI0Ni01LjIwNDEtMS40NTYzLTcuMTgxMS0yLjQ5NzctMS45NzgzLTEuMDQwOC0zLjQ2MTItMi4zNTQxLTQuNDQ5My0zLjk0MjUtLjk4OS0xLjU4NjUtMS40ODMtMy40OTktMS40ODMtNS43MzY5LDAtMi4wMjk0LC42MzY3LTMuOTgxLDEuOTEyMi01Ljg1NDQsMS4yNzQ2LTEuODczNCwzLjE2MTMtMy40MjA5LDUuNjU5LTQuNjQ0MywyLjQ5OC0xLjIyMTgsNS42MjAzLTEuODM0Myw5LjM2NjgtMS44MzQzLDIuODYxMSwwLDUuMzcyNSwuMzUxNCw3LjUzMjQsMS4wNTM4LDIuMTU4NywuNzAyNywzLjk2NzMsMS41ODgxLDUuNDI0OSwyLjY1NCwxLjQ1NjMsMS4wNjcxLDIuNTYyNSwyLjE2LDMuMzE3MywzLjI3ODIsLjc1MzksMS4xMTk1LDEuMTU3MywyLjA5NTUsMS4yMDk4LDIuOTI3MiwuMDUxNSwuNTIwNy0uMTA0OCwuOTYzNi0uNDY4MywxLjMyNy0uMzY0NywuMzY0Ny0uNzgwNiwuNTQ2NC0xLjI0ODgsLjU0NjRoLTYuOTQ2OWMtLjI2MTEsMC0uNDk1My0uMDM4OC0uNzAyNC0uMTE2OS0uMjA4Ny0uMDc4Mi0uMzkwNC0uMTk1MS0uNTQ2NC0uMzUxNC0uNjI0Ni0uNDE2Mi0xLjI2MjUtLjg5NzgtMS45MTI1LTEuNDQ0Mi0uNjUxMy0uNTQ2NC0xLjQxODUtMS4wMjY4LTIuMzAyNi0xLjQ0MzktLjg4NTQtLjQxNTktMi4wMjk0LS42MjQ2LTMuNDM0Ni0uNjI0Ni0xLjcxNzEsMC0zLjAzMTcsLjM3ODEtMy45NDE2LDEuMTMxOS0uOTExMSwuNzU0OC0xLjM2NjEsMS43MDU0LTEuMzY2MSwyLjg0OSwwLC43Mjk0LC4yMzQxLDEuNDA0OCwuNzAyNCwyLjAyOTRzMS40MzA2LDEuMTk3NywyLjg4ODEsMS43MTc0YzEuNDU2MywuNTIwNCwzLjY2ODcsMS4wNjY4LDYuNjM0NywxLjYzOTMsMy41MzgxLC42MjM5LDYuMzQ4MSwxLjU2MTEsOC40MzAyLDIuODA5NywyLjA4MDYsMS4yNDkyLDMuNTc3MiwyLjY5MzQsNC40ODgsNC4zMzI3LC45MDk5LDEuNjM4NiwxLjM2NjEsMy4zOTQ4LDEuMzY2MSw1LjI2ODYsMCwyLjQ0NjItLjcyOTQsNC42MTg2LTIuMTg1Nyw2LjUxNzctMS40NTcyLDEuODk5OC0zLjU3ODEsMy4zODI4LTYuMzYxNCw0LjQ0ODktMi43ODQyLDEuMDY2Mi02LjIwNTUsMS41OTk5LTEwLjI2NDMsMS41OTk5WiIgZGF0YS1uYW1lPSJmdWxsTG9nbyIgaWQ9ImZ1bGxMb2dvLTMiLz4mI3hhOyAgPHBhdGggc3R5bGU9ImZpbGw6ICMzNjFlNWI7IiBkPSJNMzU4LjQ3NjgsMTMwLjUyNDNjLTMuMjI3MSwwLTUuOTg0Ny0uNTMzMS04LjI3MzktMS41OTk5LTIuMjkwMi0xLjA2NjItNC4wMTk3LTIuNzE4OC01LjE5MDctNC45NTY2LTEuMTcwNy0yLjIzNzItMS43NTYyLTUuMDQ2OC0xLjc1NjItOC40MzAydi0xNi4zOTE5aC02LjA4ODJjLS41NzMxLDAtMS4wNDE3LS4xODE3LTEuNDA1MS0uNTQ2NC0uMzY0Ny0uMzYzNC0uNTQ2NC0uODMxNy0uNTQ2NC0xLjQwNTF2LTUuMzA3N2MwLS41NzIyLC4xODE3LTEuMDQwNCwuNTQ2NC0xLjQwNTEsLjM2MzQtLjM2MzQsLjgzMi0uNTQ2NCwxLjQwNTEtLjU0NjRoNi4wODgydi0xMi44NzkyYzAtLjU3MTgsLjE5NTQtMS4wNDAxLC41ODU1LTEuNDA0OCwuMzkwNC0uMzYzNCwuODQ1MS0uNTQ2NCwxLjM2NjEtLjU0NjRoNy42NDk0Yy41NzIyLDAsMS4wNDA0LC4xODMsMS40MDUxLC41NDY0LC4zNjM0LC4zNjQ3LC41NDY0LC44MzMsLjU0NjQsMS40MDQ4djEyLjg3OTJoOS43NTY5Yy41MTk0LDAsLjk2MjMsLjE4MywxLjMyNywuNTQ2NCwuMzYzNCwuMzY0NywuNTQ2MSwuODMzLC41NDYxLDEuNDA1MXY1LjMwNzdjMCwuNTczNC0uMTgyNywxLjA0MTctLjU0NjEsMS40MDUxLS4zNjQ3LC4zNjQ3LS44MDc2LC41NDY0LTEuMzI3LC41NDY0aC05Ljc1Njl2MTUuNDU1M2MwLDEuOTc3OSwuMzUxLDMuNTI1NywxLjA1MzUsNC42NDQsLjcwMjcsMS4xMTk1LDEuOTM4MiwxLjY3ODcsMy43MDc4LDEuNjc4N2g1LjY5ODFjLjUxOTQsMCwuOTYyMywuMTgzLDEuMzI3LC41NDY0LC4zNjM0LC4zNjQxLC41NDY0LC44MDY5LC41NDY0LDEuMzI2N3Y1Ljc3NjNjMCwuNTczMS0uMTgzLDEuMDQxNC0uNTQ2NCwxLjQwNDgtLjM2NDcsLjM2NDctLjgwNzYsLjU0NjQtMS4zMjcsLjU0NjRoLTYuNzkxWiIgZGF0YS1uYW1lPSJmdWxsTG9nbyIgaWQ9ImZ1bGxMb2dvLTQiLz4mI3hhOyAgPHBhdGggc3R5bGU9ImZpbGw6ICMzNjFlNWI7IiBkPSJNMzkzLjkxNDIsMTMxLjMwNDVjLTMuNzk5MywwLTcuMTQyLS43MDIxLTEwLjAzMDEtMi4xMDY5LTIuODg4MS0xLjQwNTUtNS4xNjUtMy40NDY5LTYuODMtNi4xMjc2LTEuNjY2LTIuNjc5NC0yLjU3NTgtNS44OTMyLTIuNzMxOC05LjY0LS4wNTI0LS44MzE3LS4wNzgyLTEuODg1Mi0uMDc4Mi0zLjE2MSwwLTEuMjc0NiwuMDI1Ny0yLjMyODcsLjA3ODItMy4xNjE3LC4xNTYtMy43OTc3LDEuMDUzOC03LjAzNjgsMi42OTMxLTkuNzE4MiwxLjYzOS0yLjY3OTQsMy45MTQ5LTQuNzIyMiw2LjgyOTctNi4xMjczLDIuOTEzOS0xLjQwNDgsNi4yNjk5LTIuMTA3NiwxMC4wNjkyLTIuMTA3NiwzLjQ4NTcsMCw2LjQ1MTcsLjQ4MTksOC44OTg1LDEuNDQ0MiwyLjQ0NDksLjk2MzYsNC40NDg5LDIuMTczMyw2LjAxMDEsMy42Mjk2LDEuNTYxMSwxLjQ1NzIsMi43MTg4LDIuOTc5MywzLjQ3MzYsNC41NjYyLC43NTM2LDEuNTg4MSwxLjE1NzcsMi45Nzk2LDEuMjA5OCw0LjE3NiwuMDUwOCwuNTIxLS4xMTY5LC45NzU5LS41MDcsMS4zNjYxcy0uODQ2MywuNTg1Mi0xLjM2NjEsLjU4NTJoLTguMzUyMWMtLjUyMSwwLS45MjQ1LS4xNDIzLTEuMjEwNC0uNDI4OS0uMjg1OS0uMjg1My0uNTU5MS0uNjg5NC0uODE5LTEuMjA5OC0uNzI5NC0xLjgyMS0xLjY2Ni0zLjEyMjMtMi44MTAzLTMuOTAzMS0xLjE0NS0uNzgwNi0yLjU3NTgtMS4xNzEtNC4yOTMtMS4xNzEtMi4zNDE3LDAtNC4xODk0LC43NTUyLTUuNTQxOCwyLjI2MzktMS4zNTQsMS41MDk3LTIuMDgyMSwzLjg1MTctMi4xODU3LDcuMDI0OC0uMDUyNCwyLjAyOTQtLjA1MjQsMy44Nzc3LDAsNS41NDI0LC4xNTYsMy4yMjcxLC44OTc4LDUuNTY4NSwyLjIyNDUsNy4wMjQ4LDEuMzI3LDEuNDU3NiwzLjE2MTMsMi4xODU3LDUuNTAzLDIuMTg1NywxLjgyMSwwLDMuMjc4Mi0uMzkwMSw0LjM3MTEtMS4xNzEsMS4wOTI5LS43ODAyLDIuMDAyNy0yLjA4MDIsMi43MzIxLTMuOTAyNSwuMjA3MS0uNTE5NywuNDY4My0uOTIzMiwuNzgwOS0xLjIwOTgsLjMxMTMtLjI4NTMsLjcyNzUtLjQyOTUsMS4yNDg1LS40Mjk1aDguMzUyMWMuNTE5NywwLC45NzU5LC4xOTUxLDEuMzY2MSwuNTg1MiwuMzkwMSwuMzkwOCwuNTU3OSwuODQ3LC41MDcsMS4zNjYxLS4wNTIxLC44ODU3LS4yOTk5LDEuOTI1OC0uNzQxNSwzLjEyMjMtLjQ0MjksMS4xOTc3LTEuMTQ1NiwyLjQyMDItMi4xMDc2LDMuNjY4Ny0uOTYzMiwxLjI0OTItMi4xOTkxLDIuNDA3NS0zLjcwNzQsMy40NzM2LTEuNTEwMywxLjA2NjgtMy4zNDQsMS45MjU4LTUuNTAzLDIuNTc1OC0yLjE2MDMsLjY1LTQuNjcxMywuOTc1My03LjUzMjQsLjk3NTNaIiBkYXRhLW5hbWU9ImZ1bGxMb2dvIiBpZD0iZnVsbExvZ28tNSIvPiYjeGE7ICA8cGF0aCBzdHlsZT0iZmlsbDogIzM2MWU1YjsiIGQ9Ik00MzguOTUxMywxMzEuMzA0NWMtNC4zMiwwLTcuOTM2NS0uNzE1NC0xMC44NDk4LTIuMTQ2My0yLjkxNDUtMS40MzAyLTUuMTM5Ni0zLjQ3MzYtNi42NzM0LTYuMTI3LTEuNTM1Ny0yLjY1NC0yLjM4MTQtNS43NDk2LTIuNTM3MS05LjI4ODYtLjA1MjctMS4wNDA4LS4wNzgyLTIuMjI1MS0uMDc4Mi0zLjU1MThzLjAyNTQtMi40ODQzLC4wNzgyLTMuNDczNmMuMTU1Ny0zLjU5MDUsMS4wNDAxLTYuNjk5NSwyLjY1NC05LjMyOCwxLjYxMjYtMi42MjcsMy44NzU4LTQuNjU2NCw2Ljc5MS02LjA4ODIsMi45MTM5LTEuNDMwNiw2LjQ1MTctMi4xNDY2LDEwLjYxNTMtMi4xNDY2LDQuMTEwMywwLDcuNjIyNywuNzE2MSwxMC41Mzc4LDIuMTQ2NiwyLjkxMzksMS40MzE4LDUuMTc3MSwzLjQ2MTIsNi43OTEsNi4wODgyLDEuNjEyLDIuNjI4NiwyLjQ5Nyw1LjczNzUsMi42NTM0LDkuMzI4LC4xMDQyLC45ODkzLC4xNTYzLDIuMTQ2MywuMTU2MywzLjQ3MzZzLS4wNTIxLDIuNTExLS4xNTYzLDMuNTUxOGMtLjE1NjMsMy41MzkxLTEuMDAyNiw2LjYzNDctMi41MzY0LDkuMjg4Ni0xLjUzNTcsMi42NTM0LTMuNzYwMiw0LjY5NjctNi42NzQsNi4xMjctMi45MTUxLDEuNDMwOS02LjUwNSwyLjE0NjMtMTAuNzcxNiwyLjE0NjNabTAtOC41ODU5YzIuNTQ4NSwwLDQuNDc1LS43OTMsNS43NzYzLTIuMzgwOCwxLjMtMS41ODY1LDIuMDAyNy0zLjkxNDYsMi4xMDY5LTYuOTg2LC4wNTIxLS43ODAyLC4wNzg4LTEuODIxLC4wNzg4LTMuMTIyMywwLTEuMy0uMDI2Ny0yLjM0MTQtLjA3ODgtMy4xMjIzLS4xMDQyLTMuMDE3NC0uODA2OS01LjMzMzQtMi4xMDY5LTYuOTQ2Ni0xLjMwMTMtMS42MTI5LTMuMjI3Ny0yLjQyMDItNS43NzYzLTIuNDIwMnMtNC40ODgzLC44MDczLTUuODE1NiwyLjQyMDJjLTEuMzI2NywxLjYxMzItMi4wNDIxLDMuOTI5Mi0yLjE0NjMsNi45NDY2LS4wNTIxLC43ODA5LS4wNzc1LDEuODIyMy0uMDc3NSwzLjEyMjMsMCwxLjMwMTMsLjAyNTQsMi4zNDIsLjA3NzUsMy4xMjIzLC4xMDQyLDMuMDcxNCwuODE5Niw1LjM5OTUsMi4xNDYzLDYuOTg2LDEuMzI3MywxLjU4NzgsMy4yNjU5LDIuMzgwOCw1LjgxNTYsMi4zODA4WiIgZGF0YS1uYW1lPSJmdWxsTG9nbyIgaWQ9ImZ1bGxMb2dvLTYiLz4mI3hhOyAgPHBhdGggc3R5bGU9ImZpbGw6ICMzNjFlNWI7IiBkPSJNNDY3LjgzMTksMTMwLjUyNDNjLS41MjEsMC0uOTYzOS0uMTgxNy0xLjMyNzMtLjU0NjQtLjM2NDctLjM2MzQtLjU0NjQtLjgzMTctLjU0NjQtMS40MDQ4di0zNi42ODY2YzAtLjU3MjIsLjE4MTctMS4wNDA0LC41NDY0LTEuNDA1MSwuMzYzNC0uMzYzNCwuODA2My0uNTQ2NCwxLjMyNzMtLjU0NjRoNy42NDk0Yy41NzE4LDAsMS4wNDA4LC4xODMsMS40MDU1LC41NDY0LC4zNjM0LC4zNjQ3LC41NDU4LC44MzMsLjU0NTgsMS40MDUxdjMuMDQ0MWMxLjM1MjctMS42NjQ3LDMuMDk1Ni0zLjA0NDEsNS4yMjk4LTQuMTM3LDIuMTMzNi0xLjA5MjksNC43MzQ5LTEuNjM5Myw3LjgwNTctMS42MzkzczUuNzYyMywuNjkwMyw4LjA3ODksMi4wNjg1YzIuMzE0NywxLjM3OTQsNC4xMzcsMy4zODM0LDUuNDYzNiw2LjAxMDQsMS4zMjczLDIuNjI4MywxLjk5MDYsNS44MTUzLDEuOTkwNiw5LjU2MjJ2MjEuNzc3N2MwLC41NzMxLS4xOTUxLDEuMDQxNC0uNTg1OCwxLjQwNDgtLjM5MDEsLjM2NDctLjg0NjMsLjU0NjQtMS4zNjYxLC41NDY0aC04LjI3MzljLS41NzMxLDAtMS4wNDA4LS4xODE3LTEuNDA0Mi0uNTQ2NC0uMzY0Ny0uMzYzNC0uNTQ2NC0uODMxNy0uNTQ2NC0xLjQwNDh2LTIxLjMwOTRjMC0yLjc1NzYtLjY2MzMtNC45MDQ1LTEuOTkwNi02LjQzOTYtMS4zMjczLTEuNTM0NC0zLjI2NjUtMi4zMDI5LTUuODE1Ni0yLjMwMjktMi40NDYyLDAtNC4zOTc1LC43Njg1LTUuODUzOCwyLjMwMjktMS40NTc2LDEuNTM1MS0yLjE4NTcsMy42ODItMi4xODU3LDYuNDM5NnYyMS4zMDk0YzAsLjU3MzEtLjE4MywxLjA0MTQtLjU0NjQsMS40MDQ4LS4zNjQxLC4zNjQ3LS44MDc2LC41NDY0LTEuMzI2NywuNTQ2NGgtOC4yNzM5WiIgZGF0YS1uYW1lPSJmdWxsTG9nbyIgaWQ9ImZ1bGxMb2dvLTciLz4mI3hhOyAgPHBhdGggc3R5bGU9ImZpbGw6ICMzNjFlNWI7IiBkPSJNNTM0LjEwMDMsMTMwLjUyNDNjLTMuMjI2NSwwLTUuOTg0LS41MzMxLTguMjczOS0xLjU5OTktMi4yODk5LTEuMDY2Mi00LjAxOTQtMi43MTg4LTUuMTkwNC00Ljk1NjYtMS4xNzEtMi4yMzcyLTEuNzU2Mi01LjA0NjgtMS43NTYyLTguNDMwMnYtMTYuMzkxOWgtNi4wODgyYy0uNTczMSwwLTEuMDQxNC0uMTgxNy0xLjQwNDgtLjU0NjQtLjM2NDctLjM2MzQtLjU0NjQtLjgzMTctLjU0NjQtMS40MDUxdi01LjMwNzdjMC0uNTcyMiwuMTgxNy0xLjA0MDQsLjU0NjQtMS40MDUxLC4zNjM0LS4zNjM0LC44MzE3LS41NDY0LDEuNDA0OC0uNTQ2NGg2LjA4ODJ2LTEyLjg3OTJjMC0uNTcxOCwuMTk1MS0xLjA0MDEsLjU4NTItMS40MDQ4LC4zOTA4LS4zNjM0LC44NDUxLS41NDY0LDEuMzY2MS0uNTQ2NGg3LjY1Yy41NzE4LDAsMS4wNDAxLC4xODMsMS40MDQ4LC41NDY0LC4zNjM0LC4zNjQ3LC41NDY0LC44MzMsLjU0NjQsMS40MDQ4djEyLjg3OTJoOS43NTY5Yy41MTkxLDAsLjk2MjYsLjE4MywxLjMyNzMsLjU0NjQsLjM2MzQsLjM2NDcsLjU0NTgsLjgzMywuNTQ1OCwxLjQwNTF2NS4zMDc3YzAsLjU3MzQtLjE4MjQsMS4wNDE3LS41NDU4LDEuNDA1MS0uMzY0NywuMzY0Ny0uODA4MiwuNTQ2NC0xLjMyNzMsLjU0NjRoLTkuNzU2OXYxNS40NTUzYzAsMS45Nzc5LC4zNTE0LDMuNTI1NywxLjA1MzUsNC42NDQsLjcwMjcsMS4xMTk1LDEuOTM4NSwxLjY3ODcsMy43MDc0LDEuNjc4N2g1LjY5ODFjLjUxOTcsMCwuOTYyNiwuMTgzLDEuMzI3MywuNTQ2NCwuMzYzNCwuMzY0MSwuNTQ2NCwuODA2OSwuNTQ2NCwxLjMyNjd2NS43NzYzYzAsLjU3MzEtLjE4MywxLjA0MTQtLjU0NjQsMS40MDQ4LS4zNjQ3LC4zNjQ3LS44MDc2LC41NDY0LTEuMzI3MywuNTQ2NGgtNi43OTFaIiBkYXRhLW5hbWU9ImZ1bGxMb2dvIiBpZD0iZnVsbExvZ28tOCIvPiYjeGE7ICA8cGF0aCBzdHlsZT0iZmlsbDogIzM2MWU1YjsiIGQ9Ik01NjIuMjc4OCwxMzEuMzA0NWMtMi43NTg4LDAtNS4yMjk4LS41MzM3LTcuNDE1NS0xLjU5OTktMi4xODU3LTEuMDY2Mi0zLjkyOTItMi41MDk4LTUuMjI5Mi00LjMzMi0xLjMwMTktMS44MjEtMS45NTE5LTMuODUwNC0xLjk1MTktNi4wODgyLDAtMy42OTQxLDEuNDk1Ny02LjYwOCw0LjQ4ODMtOC43NDI4LDIuOTkxNC0yLjEzMyw2LjkzMzMtMy41OTA1LDExLjgyNTctNC4zNzA4bDEwLjIyNDYtMS40ODN2LTEuNDA0OGMwLTIuMDMtLjQ2NzYtMy41OTA1LTEuNDA0Mi00LjY4MzctLjkzNzItMS4wOTI5LTIuNTc1OC0xLjYzOTMtNC45MTc5LTEuNjM5My0xLjcxNjgsMC0zLjA5NjgsLjMzOS00LjEzNywxLjAxNDctMS4wNDE0LC42NzctMS44NDc3LDEuNTYxNC0yLjQyMDIsMi42NTQzLS40MTY4LC42NzY3LTEuMDE0MSwxLjAxNDctMS43OTUsMS4wMTQ3aC03LjQxNTVjLS41NzMxLDAtMS4wMTQxLS4xNjg0LTEuMzI2Ny0uNTA3Ny0uMzEyNi0uMzM4LS40NDIyLS43NDE1LS4zOTAxLTEuMjA5OCwwLS44ODQ1LC4zMzgtMS45MjQ2LDEuMDE0Ny0zLjEyMjMsLjY3NTQtMS4xOTY0LDEuNzE3NC0yLjM4MDgsMy4xMjIzLTMuNTUxOCwxLjQwNDgtMS4xNzA3LDMuMjAwNC0yLjE0NjMsNS4zODYxLTIuOTI2OSwyLjE4NTEtLjc4MDYsNC44NjQ1LTEuMTcxLDguMDM5NS0xLjE3MSwzLjI3NzksMCw2LjA4ODIsLjM5MDQsOC40Mjk2LDEuMTcxLDIuMzQyLC43ODA2LDQuMjE1MSwxLjg3MzQsNS42MjA2LDMuMjc4MiwxLjQwNDgsMS40MDUxLDIuNDQ0OSwzLjAzMiwzLjEyMjMsNC44Nzg1LC42NzU0LDEuODQ3NywxLjAxNDEsMy44MzgzLDEuMDE0MSw1Ljk3MTN2MjQuMTE5N2MwLC41NzMxLS4xODMsMS4wNDE0LS41NDY0LDEuNDA0OC0uMzY0NywuMzY0Ny0uODMyMywuNTQ2NC0xLjQwNDIsLjU0NjRoLTcuNjVjLS41MjEsMC0uOTYzMi0uMTgxNy0xLjMyNjctLjU0NjQtLjM2NDctLjM2MzQtLjU0NjQtLjgzMTctLjU0NjQtMS40MDQ4di0yLjg4ODRjLS42NzczLC45ODkzLTEuNTg4NSwxLjkxMjUtMi43MzIxLDIuNzcxNS0xLjE0NSwuODU4NC0yLjUxMSwxLjU0ODQtNC4wOTgyLDIuMDY4Mi0xLjU4NzIsLjUxOTctMy40NDc2LC43ODAyLTUuNTgwNiwuNzgwMlptMy4xMjIzLTguMTE3NmMxLjcxNzQsMCwzLjI1MTItLjM2MzQsNC42MDUyLTEuMDkyOSwxLjM1MjctLjcyODEsMi40MTk1LTEuODQ2NCwzLjIwMDQtMy4zNTYxLC43ODAyLTEuNTA5LDEuMTcwNC0zLjQwNzUsMS4xNzA0LTUuNjk4MXYtMS4zMjczbC03LjI1ODYsMS4xNzFjLTIuODEwMywuNDY4My00Ljg2NywxLjE3MS02LjE2NywyLjEwNzYtMS4zMDEzLC45MzY2LTEuOTUxMywyLjA4MjEtMS45NTEzLDMuNDM0MiwwLC45ODkzLC4yOTkzLDEuODQ4MywuODk3OCwyLjU3NTgsLjU5NzMsLjcyOTQsMS4zOTE1LDEuMjc1OCwyLjM4MDgsMS42MzkzLC45ODgsLjM2NDcsMi4wMjk0LC41NDY0LDMuMTIyMywuNTQ2NFoiIGRhdGEtbmFtZT0iZnVsbExvZ28iIGlkPSJmdWxsTG9nby05Ii8+JiN4YTsgIDxwYXRoIHN0eWxlPSJmaWxsOiAjMzYxZTViOyIgZD0iTTU5Ni4wNzYsODMuNjkwN2MtLjUyMSwwLS45NjM5LS4xODE3LTEuMzI3My0uNTQ2NC0uMzY0Ny0uMzYzNC0uNTQ2NC0uODMyLS41NDY0LTEuNDA1MXYtNi4yNDQ1YzAtLjU3MTgsLjE4MTctMS4wNTM4LC41NDY0LTEuNDQzOSwuMzYzNC0uMzkwNCwuODA2My0uNTg1NSwxLjMyNzMtLjU4NTVoOC4xOTU4Yy41NzE4LDAsMS4wNTM1LC4xOTUxLDEuNDQzNiwuNTg1NSwuMzkwOCwuMzkwMSwuNTg1OCwuODcyMSwuNTg1OCwxLjQ0Mzl2Ni4yNDQ1YzAsLjU3MzEtLjE5NTEsMS4wNDE3LS41ODU4LDEuNDA1MS0uMzkwMSwuMzY0Ny0uODcxNywuNTQ2NC0xLjQ0MzYsLjU0NjRoLTguMTk1OFptLjIzNDUsNDYuODMzNmMtLjUyMSwwLS45NjM5LS4xODE3LTEuMzI3My0uNTQ2NC0uMzY0Ny0uMzYzNC0uNTQ2NC0uODMxNy0uNTQ2NC0xLjQwNDh2LTM2LjY4NjZjMC0uNTcyMiwuMTgxNy0xLjA0MDQsLjU0NjQtMS40MDUxLC4zNjM0LS4zNjM0LC44MDYzLS41NDY0LDEuMzI3My0uNTQ2NGg3LjgwNWMuNTcxOCwwLDEuMDQwOCwuMTgzLDEuNDA1NSwuNTQ2NCwuMzYzNCwuMzY0NywuNTQ2NCwuODMzLC41NDY0LDEuNDA1MXYzNi42ODY2YzAsLjU3MzEtLjE4MywxLjA0MTQtLjU0NjQsMS40MDQ4LS4zNjQ3LC4zNjQ3LS44MzM2LC41NDY0LTEuNDA1NSwuNTQ2NGgtNy44MDVaIiBkYXRhLW5hbWU9ImZ1bGxMb2dvIiBpZD0iZnVsbExvZ28tMTAiLz4mI3hhOyAgPHBhdGggc3R5bGU9ImZpbGw6ICMzNjFlNWI7IiBkPSJNNjE3LjY5NjEsMTMwLjUyNDNjLS41MjEsMC0uOTYzMi0uMTgxNy0xLjMyNjctLjU0NjQtLjM2NDctLjM2MzQtLjU0NjQtLjgzMTctLjU0NjQtMS40MDQ4di0zNi42ODY2YzAtLjU3MjIsLjE4MTctMS4wNDA0LC41NDY0LTEuNDA1MSwuMzYzNC0uMzYzNCwuODA1Ny0uNTQ2NCwxLjMyNjctLjU0NjRoNy42NWMuNTcxOCwwLDEuMDQwMSwuMTgzLDEuNDA0OCwuNTQ2NCwuMzYzNCwuMzY0NywuNTQ1OCwuODMzLC41NDU4LDEuNDA1MXYzLjA0NDFjMS4zNTM0LTEuNjY0NywzLjA5NTYtMy4wNDQxLDUuMjMwNS00LjEzNywyLjEzMy0xLjA5MjksNC43MzQyLTEuNjM5Myw3LjgwNS0xLjYzOTNzNS43NjI5LC42OTAzLDguMDc5NSwyLjA2ODVjMi4zMTQxLDEuMzc5NCw0LjEzNjMsMy4zODM0LDUuNDYzLDYuMDEwNCwxLjMyNzMsMi42MjgzLDEuOTkxMyw1LjgxNTMsMS45OTEzLDkuNTYyMnYyMS43Nzc3YzAsLjU3MzEtLjE5NTcsMS4wNDE0LS41ODU4LDEuNDA0OC0uMzkwMSwuMzY0Ny0uODQ2MywuNTQ2NC0xLjM2NjEsLjU0NjRoLTguMjczOWMtLjU3MzEsMC0xLjA0MTQtLjE4MTctMS40MDQ4LS41NDY0LS4zNjQ3LS4zNjM0LS41NDY0LS44MzE3LS41NDY0LTEuNDA0OHYtMjEuMzA5NGMwLTIuNzU3Ni0uNjYzMy00LjkwNDUtMS45OTA2LTYuNDM5Ni0xLjMyNjctMS41MzQ0LTMuMjY1OS0yLjMwMjktNS44MTUtMi4zMDI5LTIuNDQ2MiwwLTQuMzk4MSwuNzY4NS01Ljg1NDQsMi4zMDI5LTEuNDU3NiwxLjUzNTEtMi4xODU3LDMuNjgyLTIuMTg1Nyw2LjQzOTZ2MjEuMzA5NGMwLC41NzMxLS4xODMsMS4wNDE0LS41NDY0LDEuNDA0OC0uMzY0MSwuMzY0Ny0uODA2OSwuNTQ2NC0xLjMyNjcsLjU0NjRoLTguMjczOVoiIGRhdGEtbmFtZT0iZnVsbExvZ28iIGlkPSJmdWxsTG9nby0xMSIvPiYjeGE7ICA8cGF0aCBzdHlsZT0iZmlsbDogIzM2MWU1YjsiIGQ9Ik02ODIuMTcwMiwxMzEuMzA0NWMtNS45ODQ3LDAtMTAuNzMyOS0xLjY2NDctMTQuMjQ1Mi00Ljk5NTQtMy41MTI0LTMuMzI5NC01LjM3MzQtOC4xNjkxLTUuNTgwNi0xNC41MTg1di0zLjM1NjFjLjIwNzEtNC4wMDY3LDEuMTE4My03LjQ1NDMsMi43MzE1LTEwLjM0MjcsMS42MTItMi44ODgxLDMuODc1OC01LjA5OTMsNi43OTEtNi42MzUsMi45MTMyLTEuNTM0MSw2LjMyMjctMi4zMDI2LDEwLjIyNTItMi4zMDI2LDQuMzcxNCwwLDguMDI2MSwuODk3OCwxMC45NjY3LDIuNjkzMSwyLjkzOTMsMS43OTUzLDUuMTUxNyw0LjI0MTgsNi42MzQ3LDcuMzM3MSwxLjQ4MywzLjA5NzIsMi4yMjUxLDYuNjQ4MywyLjIyNTEsMTAuNjU1djEuNzk1NmMwLC41MjA0LS4xOTU3LC45NjMyLS41ODU4LDEuMzI2Ny0uMzkwMSwuMzY0Ny0uODQ2MywuNTQ2NC0xLjM2NjEsLjU0NjRoLTI1LjUyMzl2LjYyNDZjLjA1MTUsMS42NjYsLjM3NjgsMy4xODc3LC45NzUzLDQuNTY1OCwuNTk3OSwxLjM3OTQsMS40NTYzLDIuNDg1NiwyLjU3NTgsMy4zMTczLDEuMTE4MywuODMzNiwyLjQ1ODksMS4yNDkyLDQuMDIwMSwxLjI0OTIsMS4zMDA2LDAsMi4zNjc0LS4xODE3LDMuMjAwNC0uNTQ2NCwuODMxNy0uMzYzNCwxLjUyMjQtLjgwNjMsMi4wNjg4LTEuMzI2NywuNTQ2NC0uNTE5NywuOTQ4Ni0uOTYyNiwxLjIwOTgtMS4zMjczLC40Njc2LS41MTkxLC44NDUxLS44NDUxLDEuMTMxNi0uOTc1MywuMjg1My0uMTI5NiwuNzQxNS0uMTk1MSwxLjM2NjEtLjE5NTFoOC4xMTc2Yy41MTk3LDAsLjk0ODYsLjE0MzYsMS4yODc5LC40Mjg5LC4zMzgsLjI4NjYsLjQ4MDMsLjY5MDcsLjQyOTUsMS4yMDk4LS4wNTI3LC44MzMtLjQ4MTYsMS44NjE3LTEuMjg4NiwzLjA4MzUtLjgwNjksMS4yMjMxLTEuOTksMi40MTk1LTMuNTUxMSwzLjU5MDUtMS41NjExLDEuMTcxLTMuNTAwMywyLjE0NjMtNS44MTUsMi45MjcyLTIuMzE2LC43ODAyLTQuOTgzMywxLjE3MDQtOC4wMDA3LDEuMTcwNFptLTcuNzI3NS0yNC45aDE1LjI5ODd2LS4xNTU3YzAtMS44NzM3LS4yOTk5LTMuNDk5LS44OTc4LTQuODc4NS0uNTk4NS0xLjM3ODEtMS40NzAzLTIuNDU4OS0yLjYxNDYtMy4yMzk1LTEuMTQ1Ni0uNzgwNi0yLjUyNDQtMS4xNzEtNC4xMzctMS4xNzEtMS42MTM5LDAtMi45OTI2LC4zOTA0LTQuMTM3LDEuMTcxLTEuMTQ1NiwuNzgwNi0yLjAxNzMsMS44NjEzLTIuNjE0NiwzLjIzOTUtLjU5OTIsMS4zNzk0LS44OTc4LDMuMDA0Ny0uODk3OCw0Ljg3ODV2LjE1NTdaIiBkYXRhLW5hbWU9ImZ1bGxMb2dvIiBpZD0iZnVsbExvZ28tMTIiLz4mI3hhOyAgPHBhdGggc3R5bGU9ImZpbGw6ICMzNjFlNWI7IiBkPSJNNzEwLjgxNjMsMTMwLjUyNDNjLS41MjEsMC0uOTYzOS0uMTgxNy0xLjMyNzMtLjU0NjQtLjM2NDctLjM2MzQtLjU0NjQtLjgzMTctLjU0NjQtMS40MDQ4di0zNi42ODY2YzAtLjUxOTcsLjE4MTctLjk3NTYsLjU0NjQtMS4zNjYxLC4zNjM0LS4zOTAxLC44MDYzLS41ODU1LDEuMzI3My0uNTg1NWg3LjY0ODdjLjUxOTcsMCwuOTc1OSwuMTk1NCwxLjM2NjEsLjU4NTUsLjM5MDEsLjM5MDQsLjU4NTgsLjg0NjMsLjU4NTgsMS4zNjYxdjMuMTIyM2MxLjMtMS42MTI2LDIuODk5OS0yLjg2MTQsNC44MDAzLTMuNzQ2OCwxLjg5OTItLjg4NDEsNC4wOTc2LTEuMzI3LDYuNTk1OS0xLjMyN2gzLjM1NjFjLjUxOTcsMCwuOTYyLC4xODMsMS4zMjY3LC41NDY0LC4zNjM0LC4zNjQ3LC41NDY0LC44MzMsLjU0NjQsMS40MDUxdjYuNzEyOGMwLC41NzMxLS4xODMsMS4wNDE3LS41NDY0LDEuNDA1MS0uMzY0NywuMzY0Ny0uODA2OSwuNTQ2NC0xLjMyNjcsLjU0NjRoLTYuODY4NWMtMi4yOTEyLDAtNC4wODYxLC42Mzc5LTUuMzg2MSwxLjkxMjUtMS4zMDEzLDEuMjc1Mi0xLjk1MTMsMy4wODI5LTEuOTUxMyw1LjQyNDl2MjAuNjg0OGMwLC41NzMxLS4xODMsMS4wNDE0LS41NDY0LDEuNDA0OC0uMzY0NywuMzY0Ny0uODMzNiwuNTQ2NC0xLjQwNTUsLjU0NjRoLTguMTk1MVoiIGRhdGEtbmFtZT0iZnVsbExvZ28iIGlkPSJmdWxsTG9nby0xMyIvPiYjeGE7ICA8cGF0aCBzdHlsZT0iZmlsbDogIzM2MWU1YjsiIGQ9Ik03NTguODk4MSwxMzEuMzA0NWMtMy4yMjcxLDAtNS45OTgtLjM3ODEtOC4zMTMzLTEuMTMxNnMtNC4xODkxLTEuNjc4LTUuNjE5My0yLjc3MDljLTEuNDMyMS0xLjA5MjktMi40OTgzLTIuMTk3OC0zLjIwMTEtMy4zMTczLS43MDIxLTEuMTE4My0xLjA4MDEtMi4wNjg4LTEuMTMxLTIuODQ5LS4wNTI3LS41NzE4LC4xMjktMS4wNDAxLC41NDY0LTEuNDA0OCwuNDE1NS0uMzYzNCwuODMxMS0uNTQ2NCwxLjI0ODUtLjU0NjRoNy41NzEyYy4xNTYzLDAsLjMxMiwuMDI2NywuNDY4MywuMDc4MiwuMTU2MywuMDUyMSwuMzEyNiwuMTgzLC40Njg5LC4zOTAxLC42NzU0LC40NjgzLDEuMzc3NSwxLjAwMjYsMi4xMDY5LDEuNTk5OSwuNzI4MSwuNTk5MiwxLjU3MzIsMS4xMDYyLDIuNTM3MSwxLjUyMjQsLjk2MjYsLjQxNjgsMi4xNzI0LC42MjQ2LDMuNjI5OSwuNjI0NiwxLjcxNjgsMCwzLjE3MzEtLjM1MTQsNC4zNzA4LTEuMDU0MSwxLjE5NjQtLjcwMjEsMS43OTUtMS43MDM1LDEuNzk1LTMuMDA1NCwwLS45MzY2LS4yNzMyLTEuNzE2OC0uODE5Ni0yLjM0MTRzLTEuNTc0NS0xLjE5NjQtMy4wODI5LTEuNzE3NGMtMS41MDk3LS41MTkxLTMuNzQ2OC0xLjA5MjktNi43MTI4LTEuNzE2OC0yLjgxMDMtLjYyNDYtNS4yMDQ0LTEuNDU2My03LjE4MTEtMi40OTc3LTEuOTc3OS0xLjA0MDgtMy40NjA5LTIuMzU0MS00LjQ0OTYtMy45NDI1LS45ODg3LTEuNTg2NS0xLjQ4My0zLjQ5OS0xLjQ4My01LjczNjksMC0yLjAyOTQsLjYzNjctMy45ODEsMS45MTI1LTUuODU0NCwxLjI3NDYtMS44NzM0LDMuMTYxNy0zLjQyMDksNS42NTg3LTQuNjQ0MywyLjQ5ODMtMS4yMjE4LDUuNjIwNi0xLjgzNDMsOS4zNjY4LTEuODM0MywyLjg2MTgsMCw1LjM3MjgsLjM1MTQsNy41MzMxLDEuMDUzOCwyLjE1ODQsLjcwMjcsMy45NjczLDEuNTg4MSw1LjQyNDksMi42NTQsMS40NTYzLDEuMDY3MSwyLjU2MTksMi4xNiwzLjMxNjcsMy4yNzgyLC43NTQyLDEuMTE5NSwxLjE1NzcsMi4wOTU1LDEuMjA5OCwyLjkyNzIsLjA1MjEsLjUyMDctLjEwNDIsLjk2MzYtLjQ2NzYsMS4zMjctLjM2NDcsLjM2NDctLjc4MDksLjU0NjQtMS4yNDkyLC41NDY0aC02Ljk0NzNjLS4yNjA1LDAtLjQ5NS0uMDM4OC0uNzAyMS0uMTE2OS0uMjA5LS4wNzgyLS4zOTA4LS4xOTUxLS41NDY0LS4zNTE0LS42MjQ2LS40MTYyLTEuMjYyNS0uODk3OC0xLjkxMjUtMS40NDQyLS42NTEzLS41NDY0LTEuNDE4OC0xLjAyNjgtMi4zMDI2LTEuNDQzOS0uODg1MS0uNDE1OS0yLjAyOTQtLjYyNDYtMy40MzQyLS42MjQ2LTEuNzE3NCwwLTMuMDMyLC4zNzgxLTMuOTQxOSwxLjEzMTktLjkxMTEsLjc1NDgtMS4zNjYxLDEuNzA1NC0xLjM2NjEsMi44NDksMCwuNzI5NCwuMjMzOCwxLjQwNDgsLjcwMjcsMi4wMjk0LC40Njc2LC42MjQ2LDEuNDMwMiwxLjE5NzcsMi44ODc4LDEuNzE3NCwxLjQ1NjMsLjUyMDQsMy42Njg3LDEuMDY2OCw2LjYzNDcsMS42MzkzLDMuNTM4NCwuNjIzOSw2LjM0ODEsMS41NjExLDguNDMwMiwyLjgwOTcsMi4wODA5LDEuMjQ5MiwzLjU3NzIsMi42OTM0LDQuNDg3Nyw0LjMzMjcsLjkwOTksMS42Mzg2LDEuMzY2MSwzLjM5NDgsMS4zNjYxLDUuMjY4NiwwLDIuNDQ2Mi0uNzI5NCw0LjYxODYtMi4xODU3LDYuNTE3Ny0xLjQ1NjksMS44OTk4LTMuNTc3OCwzLjM4MjgtNi4zNjE0LDQuNDQ4OS0yLjc4NDIsMS4wNjYyLTYuMjA1MSwxLjU5OTktMTAuMjYzOSwxLjU5OTlaIiBkYXRhLW5hbWU9ImZ1bGxMb2dvIiBpZD0iZnVsbExvZ28tMTQiLz4mI3hhOzwvc3ZnPg==;" parent="1" vertex="1">
          <mxGeometry x="520" y="100" width="183" height="48" as="geometry" />
        </mxCell>
      </root>
    </mxGraphModel>
  </diagram>
</mxfile>
